<svg width="24" height="24" viewBox="0 0 24 24" fill="none" xmlns="http://www.w3.org/2000/svg">
<path d="M9.87749 14.4563L10.2016 14.4577C15.0178 14.4994 17.7545 15.4876 17.7545 18.1363C17.7545 20.7226 15.1485 21.7089 10.521 21.7898L9.87749 21.7953C4.86011 21.7953 2.00049 20.8228 2.00049 18.1153C2.00049 15.4108 4.84748 14.4563 9.87749 14.4563ZM9.87749 15.9563L9.54077 15.9579C5.55385 15.9961 3.50049 16.7222 3.50049 18.1153C3.50049 19.5555 5.67602 20.2953 9.87749 20.2953C14.0843 20.2953 16.2545 19.5675 16.2545 18.1363C16.2545 16.6961 14.079 15.9563 9.87749 15.9563ZM19.2042 7.9192C19.5839 7.9192 19.8977 8.20135 19.9473 8.56743L19.9542 8.6692L19.9535 9.924L21.2501 9.9241C21.6643 9.9241 22.0001 10.2599 22.0001 10.6741C22.0001 11.0538 21.7179 11.3676 21.3519 11.4173L21.2501 11.4241L19.9535 11.424L19.9542 12.6792C19.9542 13.0934 19.6184 13.4292 19.2042 13.4292C18.8245 13.4292 18.5107 13.147 18.461 12.781L18.4542 12.6792L18.4535 11.424L17.1601 11.4241C16.7459 11.4241 16.4101 11.0883 16.4101 10.6741C16.4101 10.2944 16.6922 9.98061 17.0583 9.93095L17.1601 9.9241L18.4535 9.924L18.4542 8.6692C18.4542 8.25499 18.79 7.9192 19.2042 7.9192ZM9.87749 2C12.8277 2 15.1955 4.36779 15.1955 7.318C15.1955 10.2675 12.8274 12.636 9.87749 12.636C6.92827 12.636 4.55949 10.2672 4.55949 7.318C4.55949 4.36811 6.92795 2 9.87749 2ZM9.87749 3.5C7.75633 3.5 6.05949 5.19659 6.05949 7.318C6.05949 9.43879 7.7567 11.136 9.87749 11.136C11.9989 11.136 13.6955 9.43916 13.6955 7.318C13.6955 5.19621 11.9993 3.5 9.87749 3.5Z" fill="#666666"/>
</svg>
