<svg width="50" height="50" viewBox="0 0 50 50" fill="none" xmlns="http://www.w3.org/2000/svg">
<rect width="50" height="50" rx="6" fill="#F3F6F9"/>
<path d="M41.5517 23.7931C41.5517 23.7931 38.7068 24.1379 37.4137 19.6552C35.6296 13.47 31.6654 10 24.9999 10C18.3345 10 14.3703 13.47 12.5862 19.6552C11.293 24.1379 8.44822 23.7931 8.44822 23.7931C8.44822 23.7931 6.8965 27.2414 10.5172 29.3103H9.13788C9.13788 29.3103 9.97632 33.4977 14.1985 34.0669C14.7351 35.2794 16.4138 36.8966 21.5517 36.8966H24.9999H28.4482C33.5861 36.8966 35.2648 35.2793 35.8014 34.0669C40.0236 33.4977 40.862 29.3103 40.862 29.3103H39.4827C43.1034 27.2414 41.5517 23.7931 41.5517 23.7931Z" fill="#9D6E48"/>
<path d="M31.8965 23.7931C23.362 19.4828 23.8793 11.8966 24.9999 10C18.3346 10 14.3703 13.47 12.5862 19.6552C11.293 24.1379 8.44822 23.7931 8.44822 23.7931C8.44822 23.7931 6.8965 27.2414 10.5172 29.3103H9.13788C9.13788 29.3103 9.97632 33.4977 14.1985 34.0669C14.7351 35.2794 16.4138 36.8966 21.5517 36.8966L31.8965 23.7931Z" fill="#8D5F3D"/>
<path d="M37.7909 47.6577L36.9988 41.7174C36.8297 40.4491 35.9723 39.3788 34.7715 38.937L30.0808 37.2111C29.5176 37.0233 29.1377 36.4963 29.1377 35.9026V33.6782L32.1085 32.4404C33.6506 31.7979 34.655 30.2913 34.655 28.6207V27.9311C35.7976 27.9311 36.7239 27.0048 36.7239 25.8621C36.7239 24.7195 35.7976 23.7932 34.655 23.7932V22.4139C34.655 20.5094 33.1111 18.9656 31.2067 18.9656H18.7929C16.8884 18.9656 15.3446 20.5095 15.3446 22.4139V23.7932C14.2019 23.7932 13.2757 24.7195 13.2757 25.8621C13.2757 27.0048 14.2019 27.9311 15.3446 27.9311V28.6207C15.3446 30.2913 16.349 31.7979 17.891 32.4404L20.8619 33.6782V35.9025C20.8619 36.4962 20.4819 37.0232 19.9188 37.211L15.2281 38.9369C14.0273 39.3787 13.1699 40.449 13.0007 41.7173L12.2087 47.6576C12.0433 48.898 13.0082 50.0001 14.2594 50.0001H24.9998H35.7401C36.9914 50.0001 37.9563 48.898 37.7909 47.6577Z" fill="#F6B47B"/>
<path d="M20.8621 33.7069V35.9024C20.8621 36.3932 20.602 36.8379 20.1938 37.0835C25.6898 38.0331 28.8312 34.0834 29.1166 33.7068H20.8621V33.7069Z" fill="#E2A071"/>
<path d="M34.6552 23.7932V22.4139C34.6552 20.5094 33.1113 18.9656 31.2069 18.9656H18.7931C16.8886 18.9656 15.3448 20.5095 15.3448 22.4139V23.7932C14.2022 23.7932 13.2759 24.7195 13.2759 25.8621C13.2759 27.0048 14.2022 27.9311 15.3448 27.9311V28.6207C15.3448 30.2913 16.3492 31.7979 17.8912 32.4404L22.3473 34.2971C23.1879 34.6474 24.0894 34.8276 24.9999 34.8276C25.9104 34.8276 26.8119 34.6474 27.6524 34.2971L32.1088 32.4403C33.6508 31.7979 34.6552 30.2913 34.6552 28.6207V27.9311C35.7979 27.9311 36.7242 27.0048 36.7242 25.8621C36.7242 24.7195 35.7979 23.7932 34.6552 23.7932Z" fill="#FDC88E"/>
<path d="M20.1723 26.5516C19.793 26.5516 19.4827 26.2413 19.4827 25.862V25.1723C19.4827 24.793 19.793 24.4827 20.1723 24.4827C20.5516 24.4827 20.862 24.793 20.862 25.1723V25.862C20.862 26.2413 20.5516 26.5516 20.1723 26.5516Z" fill="#623F33"/>
<path d="M24.9999 31.398C23.7738 31.398 22.6269 31.0963 21.8533 30.57C21.5385 30.3559 21.4566 29.9268 21.6712 29.612C21.885 29.2975 22.3144 29.2156 22.6292 29.4298C23.1714 29.7985 24.0576 30.0188 24.9999 30.0188C25.9421 30.0188 26.8284 29.7985 27.3706 29.4298C27.6861 29.215 28.1145 29.2972 28.3286 29.612C28.5431 29.9268 28.4613 30.3559 28.1464 30.57C27.373 31.0963 26.226 31.398 24.9999 31.398Z" fill="#E2A071"/>
<path d="M32.9168 38.1604L30.4351 42.1309C30.057 42.7359 29.394 43.1034 28.6807 43.1034H21.3189C20.6056 43.1034 19.9426 42.7359 19.5645 42.1309L17.0829 38.1604C16.8836 37.8415 16.4657 37.7411 16.1432 37.9346L13.8779 39.2938C13.5471 39.4922 13.4434 39.9235 13.6479 40.2507L16.7239 45.1723H33.2757L36.3517 40.2506C36.5562 39.9234 36.4525 39.4922 36.1217 39.2937L33.8563 37.9345C33.534 37.7411 33.116 37.8416 32.9168 38.1604Z" fill="#F23F44"/>
<path d="M33.2758 45.1724H16.7241V49.9999H33.2758V45.1724Z" fill="#FF4F4F"/>
<path d="M18.9652 31.0107C18.4064 30.4115 18.1036 29.6209 18.1036 28.8016V21.4859C20.4995 23.1651 23.8139 24.4782 30.0001 24.8276L29.3967 22.7587C29.3967 22.7587 25.1071 20.3471 23.0173 18.9656H18.7931C18.5567 18.9656 18.3264 18.9904 18.1035 19.0357V19.0351C18.0504 19.0458 17.9979 19.0581 17.9457 19.0713C17.9409 19.0725 17.9359 19.0733 17.9311 19.0745C17.9298 19.0749 17.9288 19.0758 17.9275 19.0762C16.4423 19.4603 15.3448 20.8085 15.3448 22.4139V23.7932C14.2022 23.7932 13.2759 24.7195 13.2759 25.8621C13.2759 27.0048 14.2022 27.9311 15.3448 27.9311V28.6207C15.3448 30.2913 16.3492 31.7979 17.8912 32.4404L22.3473 34.2971C22.5654 34.388 22.7879 34.4663 23.0134 34.5341C21.0441 33.0934 19.7332 31.8341 18.9652 31.0107Z" fill="#F6B47B"/>
<path d="M29.8276 26.5516C29.4483 26.5516 29.1379 26.2413 29.1379 25.862V25.1723C29.1379 24.793 29.4483 24.4827 29.8276 24.4827C30.2069 24.4827 30.5173 24.793 30.5173 25.1723V25.862C30.5173 26.2413 30.2069 26.5516 29.8276 26.5516Z" fill="#623F33"/>
<path d="M31.8965 23.793L31.2068 22.4137C31.2068 22.4137 33.389 23.7904 34.7413 23.7904V18.6206H18.4614C21.0673 21.1155 24.3162 23.793 31.8965 23.793Z" fill="#9D6E48"/>
<path d="M31.8966 23.793C28.9989 22.3296 27.1456 20.4885 26.0042 18.6206H18.4614C21.0674 21.1155 24.3162 23.793 31.8966 23.793Z" fill="#8D5F3D"/>
</svg>
