<svg width="50" height="50" viewBox="0 0 50 50" fill="none" xmlns="http://www.w3.org/2000/svg">
<rect width="50" height="50" rx="6" fill="#F3F6F9"/>
<g clip-path="url(#clip0_9_2901)">
<path d="M38.0506 45.6889L37.9191 45.2382C37.8555 45.0206 37.6435 44.8871 37.4254 44.9149L37.2866 43.8738L36.9991 41.7173C36.9991 41.7172 36.9991 41.7171 36.9991 41.717L36.9657 41.4665C36.8147 40.3336 36.1127 39.3495 34.9567 38.7715L33.6021 38.0942C33.3827 37.9845 33.2152 38.1257 33.0541 38.3049L30.0812 37.2111C29.518 37.0233 29.1381 36.4963 29.1381 35.9026V33.6782L32.1089 32.4404C33.6507 31.7978 34.6551 30.2912 34.6551 28.6207V22.4138C34.6551 20.5093 33.1112 17.5862 31.2068 17.5862H18.793C16.8886 17.5862 15.3448 20.5093 15.3448 22.4138V28.6207C15.3448 30.2911 16.3492 31.7977 17.8911 32.4403L20.862 33.6782V35.9024C20.862 36.4961 20.4821 37.0232 19.9189 37.2109L16.9461 38.3047C16.7849 38.1255 16.6174 37.9843 16.398 38.094L15.0434 38.7714C13.8873 39.3494 13.1854 40.3335 13.0344 41.4664L13.0011 41.7169C13.0011 41.717 13.0011 41.717 13.0011 41.7171L12.7136 43.8736L12.5748 44.9147C12.3567 44.887 12.1447 45.0204 12.0811 45.2381L11.9495 45.6887C11.8791 45.93 12.0176 46.1826 12.2589 46.253L12.3912 46.2916L12.2092 47.6575C12.0435 48.8979 13.0083 50 14.2596 50H35.7403C36.9916 50 37.9565 48.8979 37.7911 47.6576L37.609 46.2917L37.7413 46.2531C37.9825 46.1828 38.121 45.9301 38.0506 45.6889Z" fill="#F6B47B"/>
<path d="M20.8619 33.5344V35.9024C20.8619 36.3932 20.6018 36.838 20.1936 37.0836C25.6896 38.0331 28.8309 33.911 29.1164 33.5344H20.8619Z" fill="#E2A071"/>
<path d="M32.1087 32.4403L27.6523 34.2971C26.8118 34.6473 25.9103 34.8276 24.9998 34.8276C24.0893 34.8276 23.1877 34.6473 22.3472 34.2971L17.8911 32.4404C16.3491 31.7978 15.3447 30.2912 15.3447 28.6207V22.4138C15.3447 20.5094 16.8886 17.5862 18.793 17.5862H31.2068C33.1112 17.5862 34.6551 20.5094 34.6551 22.4138V28.6207C34.6551 30.2912 33.6507 31.7978 32.1087 32.4403Z" fill="#FDC88E"/>
<path d="M20.1723 26.5516C19.793 26.5516 19.4827 26.2413 19.4827 25.862V25.1723C19.4827 24.793 19.793 24.4827 20.1723 24.4827C20.5516 24.4827 20.862 24.793 20.862 25.1723V25.862C20.862 26.2413 20.5516 26.5516 20.1723 26.5516Z" fill="#623F33"/>
<path d="M29.8276 26.5516C29.4483 26.5516 29.1379 26.2413 29.1379 25.862V25.1723C29.1379 24.793 29.4483 24.4827 29.8276 24.4827C30.2069 24.4827 30.5173 24.793 30.5173 25.1723V25.862C30.5173 26.2413 30.2069 26.5516 29.8276 26.5516Z" fill="#623F33"/>
<path d="M24.9999 31.398C23.7738 31.398 22.6269 31.0963 21.8533 30.57C21.5385 30.3559 21.4566 29.9268 21.6712 29.612C21.885 29.2975 22.3144 29.2156 22.6292 29.4298C23.1714 29.7985 24.0576 30.0188 24.9999 30.0188C25.9421 30.0188 26.8284 29.7985 27.3706 29.4298C27.6861 29.215 28.1145 29.2972 28.3286 29.612C28.5431 29.9268 28.4613 30.3559 28.1464 30.57C27.373 31.0963 26.226 31.398 24.9999 31.398Z" fill="#E2A071"/>
<path d="M15.3447 23.2018V28.6208C15.3447 30.2912 16.3491 31.7979 17.8911 32.4404L22.3471 34.2971C22.5652 34.388 22.7878 34.4663 23.0133 34.5341C21.0439 33.0935 19.7331 31.8341 18.965 31.0107C18.4062 30.4115 18.1033 29.6209 18.1033 28.8016V24.9472C20.0775 24.2582 25.1848 21.9949 25.2557 18.276C25.2624 17.9245 25.257 17.6112 25.2415 17.3318C21.9958 21.7684 17.4991 22.9319 15.3447 23.2018Z" fill="#F6B47B"/>
<path d="M36.9396 32.939C36.9396 31.4777 35.7349 30.8602 35.7349 29.6158C35.7349 28.3714 37.3002 28.0366 37.3002 26.1711C37.3002 24.9241 36.7445 23.9559 36.3759 23.0636C38.4776 13.9546 30.5938 10 28.4482 10C26.2069 10 25 10.6897 25 10.6897C25 10.6897 23.7931 10 21.5517 10C19.4062 10 11.5224 13.9546 13.624 23.0635C13.2554 23.9558 12.6997 24.924 12.6997 26.171C12.6997 28.0366 14.2651 28.3713 14.2651 29.6157C14.2651 30.8601 13.0603 31.4777 13.0603 32.9389C13.0603 34.4002 14.2207 35.1078 14.5976 36.2072C14.7701 36.71 14.5689 38.2184 14.5689 38.2184C14.5689 38.2184 15.7974 36.1915 15.1508 34.3295C14.5043 32.4675 15.2543 32.2672 15.8405 31.4541C16.7241 30.2284 16.6043 28.8534 15.8826 27.517C15.4166 26.6539 15.5393 25.8202 16.1925 25.2397C16.88 24.6289 17.0412 23.5747 17.0421 23.5679C20.3071 22.6121 25 20.6972 25 17.5862C25 20.6972 29.6928 22.6121 32.9577 23.5679C32.9588 23.5746 33.12 24.6289 33.8074 25.2397C34.4606 25.8202 34.5832 26.6539 34.1172 27.517C33.3956 28.8534 33.2757 30.2285 34.1594 31.4541C34.7456 32.2672 35.4956 32.4675 34.849 34.3295C34.2025 36.1914 35.4309 38.2184 35.4309 38.2184C35.4309 38.2184 35.2298 36.7099 35.4022 36.2072C35.7793 35.1078 36.9396 34.4002 36.9396 32.939Z" fill="#6E4439"/>
<path d="M36.9656 41.4666C36.8145 40.3336 36.1125 39.3495 34.9566 38.7716L33.6019 38.0942C33.3515 37.9691 33.1687 38.1706 32.9859 38.3826C29.3104 42.6439 25.0001 44.4832 25.0001 44.4832H25H25C25 44.4832 20.6897 42.6439 17.0142 38.3826C16.8313 38.1706 16.6485 37.9691 16.3981 38.0942L15.0435 38.7716C13.8875 39.3496 13.1856 40.3337 13.0345 41.4666L12.4731 45.6766C14.2949 46.3039 17.4137 47.2415 17.4137 47.2415V50.0001H32.5861V47.2415C32.5861 47.2415 35.7049 46.3039 37.5268 45.6766L36.9656 41.4666Z" fill="#57B9DD"/>
<path d="M17.3966 47.0308C17.3544 46.2107 17.0806 45.4183 16.5861 44.7588L13.3484 40.4419C13.1921 40.7638 13.0823 41.1064 13.0342 41.4666L12.4875 45.5667L17.3966 47.0308Z" fill="#43A0C5"/>
<path d="M11.9493 45.689C11.8788 45.9303 12.0174 46.183 12.2586 46.2533L17.4137 47.7571V47.2415C17.4137 46.9157 17.3625 46.5966 17.2878 46.2835L12.645 44.9292C12.4038 44.8589 12.1512 44.9973 12.0809 45.2385L11.9493 45.689Z" fill="#258CAC"/>
<path d="M32.6033 47.0308C32.6454 46.2107 32.9192 45.4183 33.4138 44.7588L36.6515 40.4419C36.8078 40.7638 36.9176 41.1064 36.9657 41.4666L37.5123 45.5667L32.6033 47.0308Z" fill="#43A0C5"/>
<path d="M38.0507 45.689C38.1211 45.9303 37.9826 46.183 37.7414 46.2533L32.5862 47.7571V47.2415C32.5862 46.9157 32.6374 46.5966 32.7121 46.2835L37.3549 44.9292C37.5961 44.8589 37.8487 44.9973 37.919 45.2385L38.0507 45.689Z" fill="#258CAC"/>
<path d="M21.5517 10C19.4062 10 11.5225 13.9546 13.624 23.0635C13.2554 23.9558 12.6997 24.924 12.6997 26.171C12.6997 28.0366 14.265 28.3713 14.265 29.6157C14.265 30.8601 13.0603 31.4777 13.0603 32.9389C13.0603 34.4002 14.2207 35.1078 14.5976 36.2072C14.77 36.71 14.5689 38.2184 14.5689 38.2184C14.5689 38.2184 15.7974 36.1915 15.1508 34.3295C14.5043 32.4675 15.2543 32.2672 15.8405 31.4541C16.7241 30.2284 16.6043 28.8534 15.8826 27.517C15.4166 26.6539 15.5393 25.8202 16.1925 25.2397C16.88 24.6289 17.0412 23.5747 17.0421 23.5679L17.0414 23.5678C17.0417 23.5678 17.0419 23.5677 17.0421 23.5677C15.0938 14.6007 22.8613 10.6968 25 10.69V10.6897C25 10.6897 23.7931 10 21.5517 10Z" fill="#5E342E"/>
</g>
<defs>
<clipPath id="clip0_9_2901">
<rect width="40" height="40" fill="white" transform="translate(5 10)"/>
</clipPath>
</defs>
</svg>
