<svg width="25" height="25" viewBox="0 0 25 25" fill="none" xmlns="http://www.w3.org/2000/svg">
<path d="M15.7806 2.13477C18.8431 2.13477 20.7949 3.56979 20.7949 6.39242V20.4657C20.7949 20.9084 20.6234 21.3329 20.3181 21.646C20.0128 21.959 19.5987 22.1348 19.1557 22.1348C18.8914 22.1305 18.6317 22.0639 18.3812 21.9319L12.7689 18.7983L7.17934 21.9384C6.50613 22.2972 5.69037 22.1317 5.17923 21.5323L5.0812 21.4067L4.98755 21.2521C4.86534 21.0129 4.7994 20.7477 4.79492 20.4657V6.56911C4.79492 3.63406 6.70407 2.13477 9.80926 2.13477H15.7806ZM15.7806 3.58251H9.80926C7.41417 3.58251 6.20697 4.53055 6.20697 6.56911L6.20687 20.4536C6.20759 20.4978 6.21838 20.5412 6.20665 20.5245L6.24411 20.5867C6.30865 20.6768 6.42977 20.7063 6.51454 20.6613L12.1018 17.523C12.5182 17.2924 13.02 17.2924 13.4384 17.5242L19.0412 20.6521C19.0836 20.6744 19.1304 20.6864 19.1669 20.6871C19.2242 20.6871 19.2791 20.6638 19.3196 20.6223C19.3601 20.5807 19.3829 20.5244 19.3829 20.4657V6.39242C19.3829 4.49265 18.145 3.58251 15.7806 3.58251ZM16.2028 8.4514C16.5927 8.4514 16.9088 8.77549 16.9088 9.17527C16.9088 9.54174 16.6432 9.8446 16.2986 9.89253L16.2028 9.89914H9.33535C8.94542 9.89914 8.62932 9.57505 8.62932 9.17527C8.62932 8.8088 8.89493 8.50594 9.23954 8.45801L9.33535 8.4514H16.2028Z" fill="#200E32"/>
</svg>
