<svg width="22" height="22" viewBox="0 0 22 22" fill="none" xmlns="http://www.w3.org/2000/svg">
<g clip-path="url(#clip0_22_8)">
<path d="M11.3882 1.27304L18.4119 4.7849C18.7045 4.93027 18.9507 5.15437 19.1229 5.432C19.295 5.70963 19.3863 6.02978 19.3865 6.35646V14.7235C19.3863 15.0501 19.295 15.3703 19.1229 15.6479C18.9507 15.9256 18.7045 16.1497 18.4119 16.295L11.3882 19.8069C11.1443 19.929 10.8752 19.9925 10.6025 19.9925C10.3297 19.9925 10.0606 19.929 9.81667 19.8069L2.79295 16.295C2.5007 16.1478 2.25542 15.9218 2.08478 15.6425C1.91413 15.3633 1.82491 15.0419 1.82719 14.7147V6.35646C1.82736 6.02978 1.91866 5.70963 2.09083 5.432C2.26299 5.15437 2.50918 4.93027 2.80173 4.7849L9.82545 1.27304C10.0683 1.15239 10.3357 1.0896 10.6068 1.0896C10.878 1.0896 11.1454 1.15239 11.3882 1.27304V1.27304Z" stroke="#F4F5F8" stroke-width="2.6339" stroke-linecap="round" stroke-linejoin="round"/>
<path d="M2.1084 5.40826L10.6071 9.65762L19.1058 5.40826" stroke="white" stroke-width="2.6339" stroke-linecap="round" stroke-linejoin="round"/>
<path d="M10.6069 19.9825V9.65759" stroke="white" stroke-width="2.6339" stroke-linecap="round" stroke-linejoin="round"/>
</g>
<defs>
<clipPath id="clip0_22_8">
<rect width="21.0712" height="21.0712" fill="white" transform="translate(0.0712891)"/>
</clipPath>
</defs>
</svg>
