<svg width="40" height="40" viewBox="0 0 40 40" fill="none" xmlns="http://www.w3.org/2000/svg">
<g clip-path="url(#clip0_9_2872)">
<path d="M33.7813 36.4549L33.7188 35.8915C33.694 35.6686 33.4932 35.5079 33.2704 35.5327L33.2353 35.5366L32.6295 30.6905C32.4977 29.6364 31.7724 28.7516 30.7645 28.4156L27.3984 27.2936C26.9362 27.1394 26.4291 27.2375 26.0727 27.5413L25.0811 27.2108C24.5178 27.023 24.138 26.496 24.138 25.9023V23.678L27.1088 22.4401C28.6508 21.7978 29.6552 20.2912 29.6552 18.6207V17.931C30.7979 17.931 31.7242 17.0047 31.7242 15.862C31.7242 15.517 31.6393 15.1919 31.4898 14.9058C31.6401 14.5653 31.7242 14.1891 31.7242 13.7931C31.7242 13.5138 31.6703 13.2496 31.5932 12.9956C32.0993 12.4955 32.4139 11.8021 32.4139 11.0345C32.4139 10.7551 32.36 10.491 32.2828 10.237C32.789 9.73688 33.1035 9.04352 33.1035 8.27584C33.1035 6.94904 32.1662 5.84257 30.918 5.57852C30.9864 5.33826 31.0345 5.08973 31.0345 4.82758C31.0345 3.30404 29.7995 2.06896 28.2759 2.06896C27.7038 2.06896 27.1724 2.24327 26.7317 2.54155C26.3552 1.46595 25.3421 0.689654 24.138 0.689654C23.4578 0.689654 22.8431 0.945257 22.3621 1.35345C21.8809 0.546292 21.0081 0 20.0002 0C18.9922 0 18.1195 0.546292 17.6382 1.35345C17.1572 0.945257 16.5425 0.689654 15.8623 0.689654C14.6581 0.689654 13.645 1.46595 13.2685 2.54155C12.8278 2.24327 12.2964 2.06896 11.7243 2.06896C10.2008 2.06896 8.96571 3.30404 8.96571 4.82758C8.96571 5.08973 9.01399 5.33826 9.08226 5.57852C7.83399 5.84257 6.89667 6.94904 6.89667 8.27584C6.89667 9.04352 7.21123 9.73688 7.71735 10.237C7.6402 10.491 7.58632 10.7551 7.58632 11.0345C7.58632 11.8021 7.90089 12.4955 8.40701 12.9956C8.32985 13.2496 8.27597 13.5138 8.27597 13.7931C8.27597 14.1891 8.36003 14.5653 8.51037 14.9058C8.36097 15.1919 8.27597 15.517 8.27597 15.862C8.27597 17.0047 9.20226 17.931 10.3449 17.931V18.6207C10.3449 20.2911 11.3493 21.7977 12.8913 22.4403L15.8622 23.6781V25.9024C15.8622 26.4961 15.4823 27.0231 14.9191 27.2109L13.9275 27.5414C13.571 27.2376 13.064 27.1395 12.6017 27.2936L9.23563 28.4157C8.22778 28.7517 7.50244 29.6365 7.37063 30.6906L6.76486 35.5367L6.72977 35.5328C6.50693 35.508 6.30615 35.6686 6.28141 35.8916L6.21882 36.455C6.19408 36.6779 6.35468 36.8786 6.57753 36.9034L7.58632 37.0154V38.6206C7.58632 39.3823 8.20391 39.9999 8.96563 39.9999H12.4139H27.5863H31.0345C31.7964 39.9999 32.4139 39.3823 32.4139 38.6206V37.0154L33.4226 36.9033C33.6455 36.8785 33.8062 36.6778 33.7813 36.4549Z" fill="#C38762"/>
<path d="M32.283 10.237C32.7891 9.73687 33.1036 9.04351 33.1036 8.27584C33.1036 6.94904 32.1662 5.84257 30.9181 5.57852C30.9864 5.33826 31.0346 5.08973 31.0346 4.82758C31.0346 3.30404 29.7995 2.06896 28.276 2.06896C27.7038 2.06896 27.1725 2.24327 26.7318 2.54155C26.3553 1.46595 25.3422 0.689654 24.1381 0.689654C23.4578 0.689654 22.8432 0.945256 22.3621 1.35345C21.881 0.546292 21.0082 0 20.0002 0C18.9923 0 18.1195 0.546292 17.6383 1.35345C17.1572 0.945256 16.5426 0.689654 15.8623 0.689654C14.6582 0.689654 13.6451 1.46595 13.2686 2.54155C12.8278 2.24327 12.2965 2.06896 11.7244 2.06896C10.2009 2.06896 8.96578 3.30404 8.96578 4.82758C8.96578 5.08973 9.01405 5.33826 9.08233 5.57852C7.83405 5.84257 6.89673 6.94904 6.89673 8.27584C6.89673 9.04351 7.2113 9.73687 7.71742 10.237C7.64026 10.491 7.58638 10.7551 7.58638 11.0345C7.58638 11.8021 7.90095 12.4955 8.40707 12.9956C8.32991 13.2496 8.27604 13.5138 8.27604 13.7931C8.27604 15.3166 9.51112 16.5517 11.0346 16.5517C11.0349 16.5517 11.0352 16.5517 11.0355 16.5517H28.9649C28.9651 16.5517 28.9654 16.5517 28.9657 16.5517C30.4893 16.5517 31.7243 15.3166 31.7243 13.7931C31.7243 13.5138 31.6705 13.2496 31.5933 12.9956C32.0994 12.4955 32.414 11.8021 32.414 11.0345C32.4139 10.7551 32.3601 10.491 32.283 10.237Z" fill="#623F33"/>
<path d="M27.5864 40.0001V36.5518H33.3622L32.6295 30.6907C32.4977 29.6366 31.7724 28.7518 30.7645 28.4158L27.3984 27.2937C26.8122 27.0983 26.1527 27.307 25.8216 27.8287C24.5992 29.7549 22.4505 31.0345 20.0002 31.0345C17.55 31.0345 15.4012 29.7549 14.1787 27.8287C13.8476 27.3069 13.1881 27.0982 12.6019 27.2937L9.23579 28.4157C8.22794 28.7517 7.5026 29.6365 7.37079 30.6906L6.71484 35.9382L12.4141 36.5518V40H27.5864V40.0001H27.5864Z" fill="#FFD739"/>
<path d="M24.1381 23.678L15.8623 21.8389V25.9022C15.8623 26.3987 15.5876 26.836 15.1711 27.0798C20.9551 28.0922 24.1381 23.678 24.1381 23.678Z" fill="#A46D4D"/>
<path d="M29.6551 13.7931V11.7241C29.6551 9.81971 28.1113 7.58618 26.2069 7.58618H13.7931C11.8886 7.58618 10.3448 9.81971 10.3448 11.7241V13.7931C9.20217 13.7931 8.27588 14.7194 8.27588 15.862C8.27588 17.0047 9.20217 17.931 10.3448 17.931V18.6206C10.3448 20.2911 11.3492 21.7977 12.8912 22.4403L17.3473 24.297C18.1879 24.6473 19.0895 24.8275 20 24.8275C20.9105 24.8275 21.812 24.6472 22.6525 24.297L27.1089 22.4402C28.6508 21.7978 29.6551 20.2912 29.6551 18.6206V17.931C30.7978 17.931 31.7241 17.0047 31.7241 15.862C31.7241 14.7194 30.7978 13.7931 29.6551 13.7931Z" fill="#D29771"/>
<path d="M15.1726 16.5516C14.7933 16.5516 14.4829 16.2413 14.4829 15.862V15.1723C14.4829 14.793 14.7933 14.4827 15.1726 14.4827C15.5519 14.4827 15.8622 14.793 15.8622 15.1723V15.862C15.8622 16.2413 15.5518 16.5516 15.1726 16.5516Z" fill="#623F33"/>
<path d="M24.8276 16.5516C24.4483 16.5516 24.1379 16.2413 24.1379 15.862V15.1723C24.1379 14.793 24.4483 14.4827 24.8276 14.4827C25.2069 14.4827 25.5172 14.793 25.5172 15.1723V15.862C25.5172 16.2413 25.2069 16.5516 24.8276 16.5516Z" fill="#623F33"/>
<path d="M20.0001 21.398C18.774 21.398 17.6271 21.0963 16.8535 20.57C16.5387 20.3559 16.4569 19.9268 16.6714 19.612C16.8852 19.2975 17.3146 19.2156 17.6294 19.4298C18.1716 19.7986 19.0578 20.0188 20.0001 20.0188C20.9423 20.0188 21.8286 19.7986 22.3708 19.4298C22.6863 19.215 23.1146 19.2972 23.3288 19.612C23.5433 19.9268 23.4615 20.3559 23.1466 20.57C22.3732 21.0963 21.2262 21.398 20.0001 21.398Z" fill="#A46D4D"/>
<path d="M12.4139 37.0723V35.5114C12.4139 34.8479 12.1748 34.2067 11.7404 33.7051L7.94565 29.3247C7.63944 29.7124 7.43444 30.1807 7.37073 30.6905L6.65039 36.4531C7.7472 36.519 10.6648 36.8608 12.4139 37.0723Z" fill="#FFC33D"/>
<path d="M12.414 36.1643L6.72986 35.5328C6.50693 35.508 6.30624 35.6687 6.28141 35.8915L6.21882 36.4549C6.19408 36.6778 6.35468 36.8786 6.57753 36.9033L12.414 37.5518V36.1643Z" fill="#FFB440"/>
<path d="M27.5862 37.0723V35.5114C27.5862 34.8479 27.8253 34.2067 28.2597 33.7051L32.0544 29.3247C32.3607 29.7124 32.5657 30.1807 32.6294 30.6905L33.3497 36.4531C32.2529 36.519 29.3352 36.8608 27.5862 37.0723Z" fill="#FFC33D"/>
<path d="M27.5862 36.1643L33.2703 35.5328C33.4932 35.508 33.6939 35.6687 33.7188 35.8915L33.7813 36.4549C33.8061 36.6778 33.6455 36.8786 33.4226 36.9033L27.5862 37.5518V36.1643Z" fill="#FFB440"/>
<path d="M10.3448 7.67236V13.793C9.20217 13.793 8.27588 14.7193 8.27588 15.862C8.27588 17.0047 9.20217 17.931 10.3448 17.931V18.6206C10.3448 20.2911 11.3492 21.7978 12.8912 22.4403L17.3472 24.297C17.5653 24.3878 17.7879 24.4661 18.0134 24.534C16.0441 23.0934 14.7332 21.834 13.9651 21.0105C13.4063 20.4114 13.1035 19.6208 13.1035 18.8015V11.0149C13.8375 10.933 14.4928 10.5939 14.9813 10.0913C15.3575 10.2534 15.7713 10.3448 16.2069 10.3448C17.1549 10.3448 17.993 9.91063 18.5622 9.24081C18.982 9.49883 19.4712 9.65512 20 9.65512C20.7082 9.65512 21.3473 9.38046 21.8358 8.94184C22.3713 9.38081 23.0468 9.65512 23.7931 9.65512C25.1107 9.65512 26.2283 8.83141 26.6763 7.67236H10.3448Z" fill="#C38762"/>
<path d="M29.6551 8.27577C29.6103 8.27577 29.5685 8.28612 29.5244 8.28896C29.6044 8.06862 29.6551 7.83405 29.6551 7.58612C29.6551 6.44345 28.7289 5.51716 27.5862 5.51716C27.3352 5.51716 27.0977 5.56863 26.8752 5.65044C26.7645 4.03708 25.4346 2.75854 23.7931 2.75854C22.3799 2.75854 21.2008 3.70897 20.8258 5.00121C20.5725 4.89061 20.294 4.82751 20 4.82751C19.2259 4.82751 18.5593 5.25759 18.2045 5.88699C17.7703 5.24776 17.0379 4.82751 16.207 4.82751C15.2194 4.82751 14.3731 5.42216 13.9993 6.27147C13.6198 5.8144 13.0543 5.51716 12.4139 5.51716C11.6452 5.51716 10.9749 5.93664 10.6182 6.55888C10.5708 6.55414 10.5228 6.55164 10.4742 6.55164C9.68855 6.55164 9.05174 7.18845 9.05174 7.97405C9.05174 8.20578 9.10829 8.42388 9.20665 8.61724C8.64605 8.98733 8.27588 9.62267 8.27588 10.3447C8.27588 11.4874 9.20217 12.4137 10.3448 12.4137C11.4875 12.4137 12.4138 11.4874 12.4138 10.3447C12.4138 10.0968 12.363 9.86224 12.283 9.64189C12.3272 9.64474 12.3691 9.65508 12.4138 9.65508C13.1879 9.65508 13.8546 9.225 14.2093 8.5956C14.6435 9.23482 15.376 9.65508 16.2069 9.65508C17.1945 9.65508 18.0408 9.06043 18.4146 8.21112C18.794 8.66819 19.3594 8.96543 20 8.96543C20.6865 8.96543 21.2902 8.62733 21.6666 8.11259C22.2227 8.63793 22.9678 8.96543 23.7931 8.96543C24.4971 8.96543 25.139 8.72198 25.6598 8.3269C25.9583 9.10241 26.7054 9.65508 27.5862 9.65508C27.631 9.65508 27.6728 9.64474 27.717 9.64189C27.637 9.86224 27.5862 10.0968 27.5862 10.3447C27.5862 11.4874 28.5125 12.4137 29.6551 12.4137C30.7978 12.4137 31.7241 11.4874 31.7241 10.3447C31.7241 9.20207 30.7978 8.27577 29.6551 8.27577Z" fill="#623F33"/>
</g>
<defs>
<clipPath id="clip0_9_2872">
<rect width="40" height="40" fill="white"/>
</clipPath>
</defs>
</svg>
