<svg width="25" height="25" viewBox="0 0 25 25" fill="none" xmlns="http://www.w3.org/2000/svg">
<path d="M15.842 2.91162C16.1925 2.91162 16.4821 3.17409 16.528 3.51463L16.5343 3.6093L16.5344 4.39789C19.3774 4.59283 21.1183 6.43051 21.1093 9.39741V17.8861C21.1093 21.0309 19.1547 22.9116 16.013 22.9116H8.20563C5.06771 22.9116 3.10938 20.9988 3.10938 17.8157V9.39741C3.10938 6.43157 4.85589 4.59339 7.69282 4.39797L7.6929 3.6093C7.6929 3.22398 8.00286 2.91162 8.38521 2.91162C8.73569 2.91162 9.02535 3.17409 9.07119 3.51463L9.07751 3.6093L9.07737 4.38062H15.1494L15.1497 3.6093C15.1497 3.22398 15.4596 2.91162 15.842 2.91162ZM19.7244 11.1946H4.49337L4.49399 17.8157C4.49399 20.1408 5.73854 21.4314 7.97834 21.5122L8.20563 21.5163H16.013C18.4039 21.5163 19.7247 20.2454 19.7247 17.8861L19.7244 11.1946ZM16.2183 17.0476C16.6006 17.0476 16.9106 17.36 16.9106 17.7453C16.9106 18.0985 16.6501 18.3904 16.3122 18.4366L16.2183 18.443C15.8274 18.443 15.5174 18.1306 15.5174 17.7453C15.5174 17.3921 15.7778 17.1002 16.1158 17.054L16.2183 17.0476ZM12.1222 17.0476C12.5045 17.0476 12.8145 17.36 12.8145 17.7453C12.8145 18.0985 12.554 18.3904 12.2161 18.4366L12.1222 18.443C11.7313 18.443 11.4213 18.1306 11.4213 17.7453C11.4213 17.3921 11.6817 17.1002 12.0197 17.054L12.1222 17.0476ZM8.0175 17.0476C8.39985 17.0476 8.7098 17.36 8.7098 17.7453C8.7098 18.0985 8.44936 18.3904 8.11144 18.4366L8.00895 18.443C7.6266 18.443 7.31664 18.1306 7.31664 17.7453C7.31664 17.3921 7.57709 17.1002 7.91501 17.054L8.0175 17.0476ZM16.2183 13.4323C16.6006 13.4323 16.9106 13.7446 16.9106 14.1299C16.9106 14.4831 16.6501 14.775 16.3122 14.8212L16.2183 14.8276C15.8274 14.8276 15.5174 14.5153 15.5174 14.1299C15.5174 13.7767 15.7778 13.4848 16.1158 13.4386L16.2183 13.4323ZM12.1222 13.4323C12.5045 13.4323 12.8145 13.7446 12.8145 14.1299C12.8145 14.4831 12.554 14.775 12.2161 14.8212L12.1222 14.8276C11.7313 14.8276 11.4213 14.5153 11.4213 14.1299C11.4213 13.7767 11.6817 13.4848 12.0197 13.4386L12.1222 13.4323ZM8.0175 13.4323C8.39985 13.4323 8.7098 13.7446 8.7098 14.1299C8.7098 14.4831 8.44936 14.775 8.11144 14.8212L8.00895 14.8276C7.6266 14.8276 7.31664 14.5153 7.31664 14.1299C7.31664 13.7767 7.57709 13.4848 7.91501 13.4386L8.0175 13.4323ZM15.1494 5.77562H9.07737L9.07751 6.67049C9.07751 7.0558 8.76756 7.36816 8.38521 7.36816C8.03472 7.36816 7.74506 7.10569 7.69922 6.76516L7.6929 6.67049L7.69192 5.79683C5.62827 5.96999 4.49399 7.21823 4.49399 9.39741L4.49337 9.79862H19.7244L19.7247 9.39527C19.7313 7.21437 18.6029 5.96873 16.5343 5.79661L16.5343 6.67049C16.5343 7.0558 16.2243 7.36816 15.842 7.36816C15.4915 7.36816 15.2018 7.10569 15.156 6.76516L15.1497 6.67049L15.1494 5.77562Z" fill="#666666"/>
</svg>
