<svg width="25" height="25" viewBox="0 0 25 25" fill="none" xmlns="http://www.w3.org/2000/svg">
<path d="M12.8529 2.13485C17.0064 2.16553 20.7102 4.75279 22.1625 8.63864C23.6149 12.5249 22.5136 16.9029 19.3946 19.6427C16.2761 22.382 11.7879 22.9151 8.11281 20.9827L8.067 20.9667C8.05985 20.9625 8.0587 20.959 8.05716 20.9542L7.37463 20.568C7.23562 20.5111 7.08158 20.5019 6.98753 20.5256C6.27803 20.7807 5.5529 20.9902 4.8166 21.1528L4.68163 21.169C3.87108 21.187 3.46268 20.6611 3.46268 19.8957L3.48222 19.7317C3.66629 18.9705 3.89696 18.2212 4.15951 17.5274C4.20023 17.3961 4.18667 17.254 4.1164 17.1223L3.93257 16.7639C2.3078 13.6574 2.43033 9.92835 4.25552 6.93487C6.08046 3.94177 9.34127 2.1209 12.8529 2.13485ZM12.8433 3.5294L12.5624 3.53379C9.64987 3.61712 6.9683 5.16597 5.44688 7.66126C3.8766 10.2367 3.77119 13.4446 5.17155 16.1221L5.35247 16.475C5.5931 16.9253 5.64345 17.453 5.47881 17.9799C5.22296 18.6594 5.00911 19.354 4.83848 20.0597L4.93292 19.6918L5.32765 19.5889C5.46315 19.5515 5.59898 19.5122 5.73552 19.4708L6.14764 19.3403L6.56626 19.1965C7.00846 19.0747 7.47862 19.1029 7.94178 19.2938C8.039 19.3407 8.15963 19.4057 8.3117 19.4917L8.73401 19.734C8.74117 19.736 8.74743 19.7377 8.75222 19.739L8.73988 19.7374L9.02761 19.8815C12.0531 21.3424 15.6576 20.9128 18.2536 18.7814L18.4738 18.5943C21.1575 16.2369 22.1049 12.4705 20.8554 9.12711C19.6058 5.78338 16.418 3.55658 12.8433 3.5294Z" fill="#200E32"/>
</svg>
