<svg width="25" height="25" viewBox="0 0 25 25" fill="none" xmlns="http://www.w3.org/2000/svg">
<path d="M15.9719 2.91162C19.1679 2.91162 21.0789 4.83162 21.1089 8.04362V17.7026C21.1089 20.9596 19.1929 22.9116 15.9719 22.9116H8.24689C7.83489 22.9116 7.44389 22.8796 7.07589 22.8166L6.85789 22.7756C4.48689 22.2826 3.10889 20.4666 3.10889 17.7026V8.12062C3.10889 7.78662 3.12889 7.46662 3.16889 7.16062C3.51789 4.47562 5.36289 2.91162 8.24689 2.91162H15.9719ZM15.9629 4.36862H8.24689C5.79089 4.36862 4.54589 5.63162 4.54589 8.12062V17.7026C4.54589 20.1916 5.79089 21.4546 8.24689 21.4546H15.9629C18.4179 21.4546 19.6549 20.1916 19.6549 17.7026V8.12062C19.6549 5.63162 18.4179 4.36862 15.9629 4.36862ZM15.7019 16.4216C16.0959 16.4216 16.4149 16.7456 16.4149 17.1456C16.4149 17.5456 16.0959 17.8696 15.7019 17.8696H8.49089C8.09689 17.8696 7.77689 17.5456 7.77689 17.1456C7.77689 16.7456 8.09689 16.4216 8.49089 16.4216H15.7019ZM15.7019 12.1826C15.9769 12.1526 16.2459 12.2846 16.3929 12.5216C16.5399 12.7606 16.5399 13.0626 16.3929 13.3016C16.2459 13.5386 15.9769 13.6706 15.7019 13.6406H8.49089C8.12489 13.5986 7.84789 13.2856 7.84789 12.9116C7.84789 12.5376 8.12489 12.2236 8.49089 12.1826H15.7019ZM11.2429 7.95362C11.6089 7.99462 11.8859 8.30862 11.8859 8.68262C11.8859 9.05562 11.6089 9.36962 11.2429 9.41062H8.49989C8.13289 9.36962 7.85589 9.05562 7.85589 8.68262C7.85589 8.30862 8.13289 7.99462 8.49989 7.95362H11.2429Z" fill="#666666"/>
</svg>
