<svg width="25" height="25" viewBox="0 0 25 25" fill="none" xmlns="http://www.w3.org/2000/svg">
<path d="M7.27803 2.95006C9.03532 2.3848 10.9369 2.58821 12.5279 3.491L12.7913 3.64906L13.0594 3.49011C14.5679 2.63607 16.3573 2.40785 18.0412 2.871L18.3069 2.95012C21.9796 4.13256 23.624 8.14278 22.3886 11.9799C21.7692 13.7649 20.7533 15.3832 19.4123 16.7172C17.5876 18.4893 15.5761 20.0542 13.4167 21.382L13.1875 21.5245C12.9547 21.6692 12.6605 21.6717 12.4254 21.5309L12.1798 21.3839C10.0175 20.0542 8.00594 18.4893 6.17496 16.711C4.84027 15.3832 3.82439 13.7649 3.19974 11.9643C1.96879 8.14045 3.60644 4.13214 7.27803 2.95006ZM12.1696 4.98904C10.8655 4.09766 9.22823 3.85815 7.72646 4.34122C4.88238 5.25688 3.593 8.41277 4.58699 11.5011C5.13369 13.0765 6.02997 14.5043 7.20074 15.6691C8.94867 17.3667 10.8754 18.8656 12.939 20.1346L12.7962 20.0446L13.264 19.7504C14.8975 18.6957 16.4359 17.4989 17.8585 16.1769L18.3866 15.6753C19.5636 14.5043 20.4599 13.0765 21.0013 11.5168C21.9996 8.41573 20.7046 5.25761 17.859 4.34145C16.2822 3.83559 14.5609 4.12533 13.2309 5.12102C12.9756 5.31219 12.6256 5.31588 12.3663 5.13015L12.1696 4.98904ZM16.6652 6.61851C17.9866 7.04028 18.9237 8.22335 19.0406 9.61329C19.0745 10.0155 18.7756 10.3689 18.3731 10.4027C17.9706 10.4365 17.6169 10.1379 17.583 9.73572C17.5155 8.9328 16.9763 8.25212 16.2201 8.01074C15.8353 7.88793 15.623 7.47671 15.7459 7.09226C15.8689 6.7078 16.2804 6.4957 16.6652 6.61851Z" fill="#200E32"/>
</svg>
