<svg width="25" height="25" viewBox="0 0 25 25" fill="none" xmlns="http://www.w3.org/2000/svg">
<path d="M9.07494 2.63529C9.70494 2.65445 10.3149 2.76445 10.9059 2.96545H10.9649C11.0049 2.98445 11.0349 3.00545 11.0549 3.02445C11.2759 3.09545 11.4849 3.17545 11.6849 3.28545L12.0649 3.45545C12.2149 3.53545 12.3949 3.68445 12.4949 3.74545C12.5949 3.80445 12.7049 3.86545 12.7949 3.93445C13.9059 3.08545 15.2549 2.62545 16.6449 2.63529C17.2759 2.63529 17.9059 2.72445 18.5049 2.92545C22.1959 4.12545 23.5259 8.17545 22.4149 11.7154C21.7849 13.5244 20.7549 15.1754 19.4059 16.5244C17.4749 18.3944 15.3559 20.0544 13.0749 21.4844L12.8249 21.6354L12.5649 21.4744C10.2759 20.0544 8.14494 18.3944 6.19594 16.5144C4.85594 15.1654 3.82494 13.5244 3.18494 11.7154C2.05494 8.17545 3.38494 4.12545 7.11594 2.90445C7.40594 2.80445 7.70494 2.73445 8.00494 2.69545H8.12494C8.40594 2.65445 8.68494 2.63529 8.96494 2.63529H9.07494ZM17.9849 5.79545C17.5749 5.65445 17.1249 5.87545 16.9749 6.29545C16.8349 6.71545 17.0549 7.17545 17.4749 7.32445C18.1159 7.56445 18.5449 8.19545 18.5449 8.89445V8.92545C18.5259 9.15445 18.5949 9.37545 18.7349 9.54545C18.8749 9.71545 19.0849 9.81445 19.3049 9.83545C19.7149 9.82445 20.0649 9.49545 20.0949 9.07445V8.95545C20.1249 7.55445 19.2759 6.28545 17.9849 5.79545Z" fill="#FF1930"/>
</svg>
