<svg width="19" height="18" viewBox="0 0 19 18" fill="none" xmlns="http://www.w3.org/2000/svg">
<path d="M17.9186 15.7933C18.2823 15.7933 18.5771 16.0823 18.5771 16.4388C18.5771 16.7656 18.3294 17.0357 18.008 17.0785L17.9186 17.0844H11.0481C10.6844 17.0844 10.3896 16.7953 10.3896 16.4388C10.3896 16.112 10.6373 15.8419 10.9588 15.7992L11.0481 15.7933H17.9186ZM11.2364 1.00097C12.4832 -0.221189 14.5054 -0.221189 15.7522 1.00097L17.0465 2.26975C18.2933 3.4919 18.2933 5.4742 17.0465 6.69635L7.31776 16.2329C6.76145 16.7783 6.00722 17.0842 5.21996 17.0842H1.23569C0.865563 17.0842 0.568133 16.7853 0.577357 16.4226L0.67758 12.4818C0.697506 11.737 1.00842 11.0269 1.54582 10.5001L11.2364 1.00097ZM10.4831 3.56335L2.47713 11.413C2.17841 11.7058 2.00529 12.1012 1.99422 12.5148L1.9106 15.7927L5.21996 15.7932C5.60937 15.7932 5.98385 15.6588 6.27943 15.4161L6.38645 15.32L14.4321 7.43335L10.4831 3.56335ZM14.8209 1.91388C14.0884 1.19591 12.9001 1.19591 12.1677 1.91388L11.4151 2.65035L15.3631 6.52035L16.1152 5.78344C16.807 5.10536 16.8454 4.02868 16.2305 3.30631L16.1152 3.18266L14.8209 1.91388Z" fill="#666666"/>
</svg>
