<svg width="25" height="25" viewBox="0 0 25 25" fill="none" xmlns="http://www.w3.org/2000/svg">
<path d="M16.438 2.91162C19.8413 2.91162 22.1094 5.34049 22.1094 8.8257V16.9965C22.1094 20.4819 19.8411 22.9116 16.438 22.9116H7.7707C4.36914 22.9116 2.10938 20.4839 2.10938 16.9965V8.8257C2.10938 5.34221 4.37574 2.91162 7.7707 2.91162H16.438ZM16.438 4.41546H7.7707C5.23003 4.41546 3.61238 6.15033 3.61238 8.8257V16.9965C3.61238 19.6763 5.22407 21.4078 7.7707 21.4078H16.438C18.9873 21.4078 20.6064 19.6734 20.6064 16.9965V8.8257C20.6064 6.14906 18.9875 4.41546 16.438 4.41546ZM17.1502 13.0951L17.2806 13.2202L19.3607 15.3677C19.6496 15.6659 19.6421 16.1419 19.3441 16.431C19.0732 16.6937 18.6553 16.7114 18.3646 16.4884L18.2815 16.4143L16.2014 14.267C15.839 13.893 15.2499 13.8895 14.8821 14.2385L14.8014 14.3253L12.5683 17.0428C11.7784 18.0056 10.3572 18.1087 9.43762 17.3019L9.31545 17.1863L8.42424 16.2764C8.19014 16.0333 7.81681 16.0103 7.55683 16.2065L7.47472 16.28L5.94266 17.8971C5.65712 18.1985 5.18147 18.2112 4.88025 17.9255C4.60641 17.6658 4.57101 17.2489 4.78136 16.9488L4.85185 16.8625L6.38359 15.2457C7.18997 14.3935 8.5179 14.3481 9.37689 15.1083L9.5021 15.2284L10.3888 16.1336C10.648 16.3982 11.0635 16.4049 11.3313 16.1669L11.4069 16.0882L13.6402 13.3705C14.5276 12.2899 16.1253 12.1805 17.1502 13.0951ZM8.68202 7.55286C10.067 7.55286 11.191 8.67751 11.191 10.0633C11.191 11.449 10.067 12.5737 8.68202 12.5737C7.2971 12.5737 6.174 11.4491 6.174 10.0633C6.174 8.67745 7.2971 7.55286 8.68202 7.55286ZM8.68202 9.05669C8.12745 9.05669 7.67701 9.50773 7.67701 10.0633C7.67701 10.6188 8.12745 11.0698 8.68202 11.0698C9.23692 11.0698 9.68803 10.6185 9.68803 10.0633C9.68803 9.50806 9.23692 9.05669 8.68202 9.05669Z" fill="#666666"/>
</svg>
