<svg width="32" height="32" viewBox="0 0 32 32" fill="none" xmlns="http://www.w3.org/2000/svg">
<path d="M28.326 19.6358C28.8766 19.6358 29.3233 20.0825 29.3233 20.6332C29.3233 20.6495 29.2653 21.3839 29.2064 22.1578L29.1714 22.6215C29.1372 23.0791 29.1069 23.502 29.0926 23.7438C29.0166 24.9945 28.5313 26.2705 27.794 27.1585C26.7673 28.3958 25.4593 28.9745 23.6806 28.9785C23.6501 28.9785 23.616 28.9786 23.5784 28.9786L21.831 28.9799C21.7426 28.9799 21.652 28.98 21.5593 28.98H10.5067C10.414 28.98 10.3234 28.9799 10.235 28.9799L8.48804 28.9786L8.38597 28.9785C6.60597 28.9745 5.29797 28.3958 4.2713 27.1572C3.5353 26.2705 3.04864 24.9945 2.97397 23.7438C2.9593 23.502 2.92864 23.0791 2.89427 22.6215L2.85912 22.1578C2.8 21.3839 2.74197 20.6495 2.74197 20.6332C2.74197 20.0825 3.18864 19.6358 3.7393 19.6358C4.2633 19.6358 4.68064 20.0438 4.72064 20.5558C4.72064 20.5558 4.92597 22.8878 4.96997 23.6238C5.0193 24.4385 5.34997 25.3252 5.8113 25.8798C6.46464 26.6678 7.1873 26.9758 8.38864 26.9785C8.42883 26.9786 8.47518 26.9786 8.52738 26.9787L10.7502 26.9799C10.8769 26.9799 11.0069 26.9799 11.1402 26.98H20.9244C21.0576 26.9799 21.1877 26.9799 21.3144 26.9799L23.5378 26.9787L23.6766 26.9785C24.8793 26.9758 25.602 26.6678 26.254 25.8812C26.7166 25.3252 27.0473 24.4385 27.0966 23.6238C27.1393 22.8878 27.3446 20.5558 27.3446 20.5558C27.3846 20.0438 27.802 19.6358 28.326 19.6358ZM15.9933 19.5121C16.5453 19.5121 16.9933 19.9601 16.9933 20.5121V22.2374C16.9933 22.7894 16.5453 23.2374 15.9933 23.2374C15.4413 23.2374 14.9933 22.7894 14.9933 22.2374V20.5121C14.9933 19.9601 15.4413 19.5121 15.9933 19.5121ZM17.7145 2.66663C19.7172 2.66663 21.3585 4.17329 21.6078 6.10796H24.2438C27.0425 6.10796 29.3198 8.38529 29.3198 11.1853V15.808C29.3198 16.144 29.1518 16.456 28.8718 16.6426C26.1225 18.4613 22.8598 19.6733 19.4345 20.148C19.3892 20.1546 19.3425 20.1573 19.2972 20.1573C18.8452 20.1573 18.4425 19.8506 18.3278 19.4026C18.0585 18.3413 17.0958 17.6 15.9865 17.6C14.8652 17.6 13.9118 18.3253 13.6145 19.408C13.4812 19.8933 13.0185 20.2053 12.5118 20.1346C9.1105 19.66 5.86117 18.4533 3.11584 16.6426C2.8345 16.4573 2.6665 16.144 2.6665 15.808V11.1853C2.6665 8.38529 4.94917 6.10796 7.75584 6.10796H10.3785C10.6292 4.17196 12.2692 2.66663 14.2718 2.66663H17.7145ZM24.2438 8.10796H7.75584C6.05317 8.10796 4.6665 9.48929 4.6665 11.1853V15.2613C6.85584 16.6173 9.37184 17.5666 12.0145 18.032C12.7665 16.564 14.2932 15.6 15.9865 15.6C17.6945 15.6 19.2145 16.568 19.9452 18.044C22.6038 17.576 25.1292 16.6226 27.3198 15.2613V11.1853C27.3198 9.48929 25.9398 8.10796 24.2438 8.10796ZM17.7145 4.66663H14.2718C13.3745 4.66663 12.6252 5.28129 12.4012 6.10796H19.5838C19.3612 5.28129 18.6105 4.66663 17.7145 4.66663Z" fill="#666666"/>
</svg>
