<svg width="14" height="14" viewBox="0 0 14 14" fill="none" xmlns="http://www.w3.org/2000/svg">
<path fill-rule="evenodd" clip-rule="evenodd" d="M6.59038 2.7431C4.46579 2.7431 2.74347 4.46543 2.74347 6.59002C2.74347 8.71461 4.46579 10.4369 6.59038 10.4369C8.71498 10.4369 10.4373 8.71461 10.4373 6.59002C10.4373 4.46543 8.71498 2.7431 6.59038 2.7431ZM1.93359 6.59002C1.93359 4.01814 4.01851 1.93323 6.59038 1.93323C9.16226 1.93323 11.2472 4.01814 11.2472 6.59002C11.2472 9.16189 9.16226 11.2468 6.59038 11.2468C4.01851 11.2468 1.93359 9.16189 1.93359 6.59002Z" fill="#141414" fill-opacity="0.5"/>
<path fill-rule="evenodd" clip-rule="evenodd" d="M9.3105 9.31047C9.46864 9.15233 9.72503 9.15233 9.88317 9.31047L12.3432 11.7705C12.5013 11.9286 12.5013 12.185 12.3432 12.3431C12.185 12.5013 11.9286 12.5013 11.7705 12.3431L9.3105 9.88314C9.15236 9.725 9.15236 9.46861 9.3105 9.31047Z" fill="#141414" fill-opacity="0.5"/>
</svg>
