<svg width="14" height="14" viewBox="0 0 14 14" fill="none" xmlns="http://www.w3.org/2000/svg">
<path fill-rule="evenodd" clip-rule="evenodd" d="M2.89746 12.4619C2.89746 12.2382 3.07876 12.0569 3.3024 12.0569H10.5913C10.8149 12.0569 10.9962 12.2382 10.9962 12.4619C10.9962 12.6855 10.8149 12.8668 10.5913 12.8668H3.3024C3.07876 12.8668 2.89746 12.6855 2.89746 12.4619Z" fill="#141414" fill-opacity="0.5"/>
<path fill-rule="evenodd" clip-rule="evenodd" d="M6.94705 4.7681C6.27613 4.7681 5.73224 5.31199 5.73224 5.98291C5.73224 6.65384 6.27613 7.19773 6.94705 7.19773C7.61798 7.19773 8.16187 6.65384 8.16187 5.98291C8.16187 5.31199 7.61798 4.7681 6.94705 4.7681ZM4.92236 5.98291C4.92236 4.86471 5.82885 3.95822 6.94705 3.95822C8.06526 3.95822 8.97175 4.86471 8.97175 5.98291C8.97175 7.10112 8.06526 8.0076 6.94705 8.0076C5.82885 8.0076 4.92236 7.10112 4.92236 5.98291Z" fill="#141414" fill-opacity="0.5"/>
<path fill-rule="evenodd" clip-rule="evenodd" d="M6.947 2.33838C5.98043 2.33838 5.05345 2.72235 4.36999 3.40581C3.68652 4.08928 3.30255 5.01626 3.30255 5.98282C3.30255 7.65925 4.23871 9.18574 5.22787 10.3233C5.71751 10.8864 6.20819 11.3404 6.57654 11.6535C6.72221 11.7773 6.84829 11.8787 6.947 11.9557C7.0457 11.8787 7.17178 11.7773 7.31745 11.6535C7.68581 11.3404 8.17648 10.8864 8.66612 10.3233C9.65529 9.18574 10.5914 7.65925 10.5914 5.98282C10.5914 5.01626 10.2075 4.08928 9.52401 3.40581C8.84054 2.72235 7.91356 2.33838 6.947 2.33838ZM6.947 12.4618C6.71478 12.7936 6.71467 12.7935 6.71454 12.7934L6.7142 12.7932L6.71325 12.7925L6.71026 12.7904L6.69996 12.7831C6.69121 12.7768 6.67873 12.7678 6.66276 12.7562C6.63083 12.7329 6.58495 12.6989 6.5271 12.6547C6.41145 12.5663 6.24776 12.4369 6.05202 12.2705C5.66112 11.9383 5.13945 11.4558 4.61674 10.8547C3.58121 9.66385 2.49268 7.95085 2.49268 5.98282C2.49268 4.80146 2.96197 3.66849 3.79732 2.83314C4.63266 1.9978 5.76564 1.5285 6.947 1.5285C8.12836 1.5285 9.26133 1.9978 10.0967 2.83314C10.932 3.66849 11.4013 4.80146 11.4013 5.98282C11.4013 7.95085 10.3128 9.66385 9.27726 10.8547C8.75455 11.4558 8.23288 11.9383 7.84197 12.2705C7.64623 12.4369 7.48254 12.5663 7.36689 12.6547C7.30904 12.6989 7.26316 12.7329 7.23123 12.7562C7.21526 12.7678 7.20278 12.7768 7.19403 12.7831L7.18373 12.7904L7.18074 12.7925L7.17979 12.7932L7.17946 12.7934C7.17933 12.7935 7.17921 12.7936 6.947 12.4618ZM6.947 12.4618L7.17921 12.7936C7.03978 12.8912 6.85421 12.8912 6.71478 12.7936L6.947 12.4618Z" fill="#141414" fill-opacity="0.5"/>
</svg>
