<svg width="15" height="15" viewBox="0 0 15 15" fill="none" xmlns="http://www.w3.org/2000/svg">
<path fill-rule="evenodd" clip-rule="evenodd" d="M2.8125 13.5938C2.8125 13.3349 3.02237 13.1251 3.28125 13.1251H11.7188C11.9776 13.1251 12.1875 13.3349 12.1875 13.5938C12.1875 13.8527 11.9776 14.0626 11.7188 14.0626H3.28125C3.02237 14.0626 2.8125 13.8527 2.8125 13.5938Z" fill="#141414" fill-opacity="0.5"/>
<path fill-rule="evenodd" clip-rule="evenodd" d="M7.5 4.68762C6.72335 4.68762 6.09375 5.31722 6.09375 6.09387C6.09375 6.87052 6.72335 7.50012 7.5 7.50012C8.27665 7.50012 8.90625 6.87052 8.90625 6.09387C8.90625 5.31722 8.27665 4.68762 7.5 4.68762ZM5.15625 6.09387C5.15625 4.79945 6.20558 3.75012 7.5 3.75012C8.79442 3.75012 9.84375 4.79945 9.84375 6.09387C9.84375 7.38829 8.79442 8.43762 7.5 8.43762C6.20558 8.43762 5.15625 7.38829 5.15625 6.09387Z" fill="#141414" fill-opacity="0.5"/>
<path fill-rule="evenodd" clip-rule="evenodd" d="M7.5 1.87503C6.38112 1.87503 5.30806 2.3195 4.51689 3.11067C3.72572 3.90184 3.28125 4.9749 3.28125 6.09378C3.28125 8.03438 4.36493 9.80143 5.50997 11.1182C6.07677 11.77 6.64477 12.2956 7.07116 12.658C7.23979 12.8013 7.38574 12.9187 7.5 13.0078C7.61426 12.9187 7.76021 12.8013 7.92884 12.658C8.35523 12.2956 8.92323 11.77 9.49003 11.1182C10.6351 9.80143 11.7188 8.03438 11.7188 6.09378C11.7188 4.9749 11.2743 3.90184 10.4831 3.11067C9.69194 2.3195 8.61888 1.87503 7.5 1.87503ZM7.5 13.5938C7.23119 13.9778 7.23106 13.9777 7.23091 13.9776L7.23052 13.9773L7.22942 13.9766L7.22596 13.9741L7.21404 13.9656C7.20391 13.9584 7.18946 13.948 7.17098 13.9345C7.13402 13.9075 7.0809 13.8682 7.01394 13.817C6.88006 13.7147 6.69057 13.5649 6.46399 13.3723C6.01148 12.9877 5.40761 12.4292 4.80253 11.7334C3.60382 10.3549 2.34375 8.37193 2.34375 6.09378C2.34375 4.72626 2.887 3.41475 3.85398 2.44776C4.82097 1.48078 6.13248 0.937531 7.5 0.937531C8.86752 0.937531 10.179 1.48078 11.146 2.44776C12.113 3.41475 12.6562 4.72626 12.6562 6.09378C12.6562 8.37193 11.3962 10.3549 10.1975 11.7334C9.59239 12.4292 8.98852 12.9877 8.53601 13.3723C8.30943 13.5649 8.11994 13.7147 7.98606 13.817C7.9191 13.8682 7.86598 13.9075 7.82902 13.9345C7.81054 13.948 7.79609 13.9584 7.78596 13.9656L7.77404 13.9741L7.77058 13.9766L7.76948 13.9773L7.76909 13.9776C7.76894 13.9777 7.76881 13.9778 7.5 13.5938ZM7.5 13.5938L7.76881 13.9778C7.60741 14.0908 7.39259 14.0908 7.23119 13.9778L7.5 13.5938Z" fill="#141414" fill-opacity="0.5"/>
</svg>
