<svg width="32" height="32" viewBox="0 0 32 32" fill="none" xmlns="http://www.w3.org/2000/svg">
<path d="M16.0771 2.66673C21.6152 2.70765 26.5536 6.15733 28.4899 11.3385C30.4264 16.5201 28.9581 22.3574 24.7995 26.0105C20.6415 29.663 14.6571 30.3738 9.75702 27.7973L9.69594 27.7759C9.68641 27.7703 9.68487 27.7656 9.68283 27.7592L8.77279 27.2442C8.58744 27.1684 8.38204 27.1561 8.25665 27.1878C7.31064 27.5279 6.34381 27.8072 5.36207 28.024L5.18212 28.0457C4.10138 28.0696 3.55685 27.3684 3.55685 26.3479L3.5829 26.1292C3.82832 25.1143 4.13589 24.1153 4.48595 23.1902C4.54024 23.0151 4.52217 22.8256 4.42847 22.65L4.18337 22.1722C2.01701 18.0302 2.18039 13.0581 4.61396 9.06676C7.04723 5.07597 11.395 2.64813 16.0771 2.66673ZM16.0643 4.52613L15.6898 4.532C11.8064 4.6431 8.23101 6.70824 6.20245 10.0353C4.10874 13.4692 3.9682 17.7465 5.83534 21.3164L6.07657 21.7869C6.39741 22.3873 6.46454 23.091 6.24502 23.7934C5.90389 24.6995 5.61876 25.6256 5.39125 26.5665L5.51717 26.076L6.04348 25.9388C6.22414 25.889 6.40525 25.8366 6.5873 25.7814L7.13679 25.6073L7.69495 25.4156C8.28456 25.2532 8.91143 25.2908 9.52898 25.5453C9.65861 25.6078 9.81945 25.6946 10.0222 25.8092L10.5853 26.1323C10.5948 26.1349 10.6032 26.1372 10.6096 26.1389L10.5931 26.1367L10.9768 26.329C15.0108 28.2768 19.8167 27.704 23.278 24.8621L23.5716 24.6127C27.1499 21.4694 28.4132 16.4476 26.7472 11.9898C25.081 7.53144 20.8306 4.56238 16.0643 4.52613ZM10.1544 14.4794C10.9946 14.4794 11.6763 15.16 11.6763 16.0002C11.6763 16.8405 10.9946 17.5211 10.1544 17.5211C9.31431 17.5211 8.63263 16.8405 8.63263 16.0002C8.63263 15.16 9.31431 14.4794 10.1544 14.4794ZM16.0703 14.4794C16.9104 14.4794 17.5921 15.16 17.5921 16.0002C17.5921 16.8405 16.9104 17.5211 16.0703 17.5211C15.2302 17.5211 14.5485 16.8405 14.5485 16.0002C14.5485 15.16 15.2302 14.4794 16.0703 14.4794ZM21.9861 14.4794C22.8263 14.4794 23.5079 15.16 23.5079 16.0002C23.5079 16.8405 22.8263 17.5211 21.9861 17.5211C21.146 17.5211 20.4643 16.8405 20.4643 16.0002C20.4643 15.16 21.146 14.4794 21.9861 14.4794Z" fill="#666666"/>
</svg>
