<svg width="32" height="32" viewBox="0 0 32 32" fill="none" xmlns="http://www.w3.org/2000/svg">
<path d="M15.9169 18.6128L16.3234 18.6147C21.8206 18.6663 24.9445 19.7876 24.9445 22.8896C24.9445 25.9185 21.9584 27.0782 16.7196 27.1818L15.9169 27.1896C10.1668 27.1896 6.88937 26.0905 6.88937 22.9128C6.88937 19.7315 10.18 18.6128 15.9169 18.6128ZM15.9169 20.6128C11.268 20.6128 8.88937 21.4215 8.88937 22.9128C8.88937 24.3937 11.2627 25.1896 15.9169 25.1896C20.5645 25.1896 22.9445 24.3801 22.9445 22.8896C22.9445 21.4088 20.5704 20.6128 15.9169 20.6128ZM25.3075 17.7821C26.0032 17.8301 26.6874 17.9288 27.3277 18.0733C28.753 18.3524 29.8242 18.8868 30.3218 19.9294C30.688 20.6996 30.688 21.5952 30.3217 22.3675C29.8277 23.4061 28.7746 23.9333 27.337 24.2289C26.796 24.3401 26.2673 23.9918 26.1561 23.4508C26.0448 22.9098 26.3932 22.3811 26.9342 22.2699C27.8039 22.091 28.3743 21.8055 28.5152 21.5094C28.6236 21.2808 28.6236 21.0153 28.5162 20.7895C28.3734 20.4904 27.7983 20.2034 26.916 20.0303C26.3487 19.9026 25.7653 19.8184 25.1699 19.7773C24.6189 19.7393 24.2031 19.2619 24.2411 18.7109C24.2791 18.1599 24.7565 17.7441 25.3075 17.7821ZM7.60526 18.7109C7.64326 19.2619 7.2274 19.7393 6.67643 19.7773C6.22991 19.8081 5.79008 19.8632 5.34717 19.9451L4.90287 20.0361C4.04836 20.2034 3.47375 20.4901 3.3311 20.79C3.22303 21.0161 3.22303 21.2801 3.33244 21.5095C3.47287 21.8057 4.04271 22.0911 4.91216 22.2699C5.45312 22.3811 5.80148 22.9098 5.69024 23.4508C5.579 23.9918 5.05028 24.3401 4.50932 24.2289C3.07113 23.9331 2.01809 23.4058 1.52619 22.3683C1.158 21.596 1.158 20.6988 1.52581 19.9293C1.98849 18.9566 2.95242 18.426 4.21592 18.1373L4.49118 18.0791C5.15888 17.9288 5.84311 17.8301 6.53883 17.7821C7.0898 17.7441 7.56726 18.1599 7.60526 18.7109ZM15.9169 4.58337C19.3243 4.58337 22.0613 7.32031 22.0613 10.7277C22.0613 14.1361 19.3245 16.8733 15.9169 16.8733C12.5093 16.8733 9.77259 14.1361 9.77259 10.7277C9.77259 7.32031 12.5095 4.58337 15.9169 4.58337ZM23.4597 5.83921C26.1486 5.83921 28.3293 8.01895 28.3293 10.7075C28.3293 13.3961 26.1486 15.5759 23.4597 15.5759C22.9075 15.5759 22.4597 15.1282 22.4597 14.5759C22.4597 14.0236 22.9075 13.5759 23.4597 13.5759C25.0442 13.5759 26.3293 12.2914 26.3293 10.7075C26.3293 9.12371 25.0442 7.83921 23.4597 7.83921C22.9075 7.83921 22.4597 7.39149 22.4597 6.83921C22.4597 6.28692 22.9075 5.83921 23.4597 5.83921ZM8.38657 5.83921C8.93886 5.83921 9.38657 6.28692 9.38657 6.83921C9.38657 7.39149 8.93886 7.83921 8.38657 7.83921C6.80208 7.83921 5.51702 9.12371 5.51702 10.7075C5.51702 12.2914 6.80208 13.5759 8.38657 13.5759C8.93886 13.5759 9.38657 14.0236 9.38657 14.5759C9.38657 15.1282 8.93886 15.5759 8.38657 15.5759C5.69771 15.5759 3.51702 13.3961 3.51702 10.7075C3.51702 8.01895 5.69771 5.83921 8.38657 5.83921ZM15.9169 6.58337C13.6141 6.58337 11.7726 8.42488 11.7726 10.7277C11.7726 13.0316 13.6139 14.8733 15.9169 14.8733C18.2199 14.8733 20.0613 13.0316 20.0613 10.7277C20.0613 8.42488 18.2198 6.58337 15.9169 6.58337Z" fill="#666666"/>
</svg>
