<svg width="32" height="32" viewBox="0 0 32 32" fill="none" xmlns="http://www.w3.org/2000/svg">
<path d="M19.4771 26.2541C19.8726 26.5761 19.9352 27.1617 19.6171 27.562C19.3819 27.8579 19.1102 28.1229 18.8221 28.34C17.852 29.1013 16.6185 29.4464 15.3936 29.3005C14.1675 29.1545 13.0492 28.5283 12.286 27.5586C11.9697 27.1567 12.0351 26.5715 12.4321 26.2513C12.829 25.9312 13.4072 25.9974 13.7234 26.3993C14.1837 26.9841 14.8621 27.3639 15.6084 27.4528C16.3557 27.5418 17.1075 27.3314 17.7099 26.859C17.8875 26.7249 18.0472 26.5693 18.1851 26.3958C18.5032 25.9955 19.0817 25.9321 19.4771 26.2541ZM6.86934 11.9996L6.88576 11.2052C6.89749 10.8654 6.91565 10.5499 6.9423 10.2412C7.3419 5.92604 11.4607 2.66663 15.9529 2.66663H16.048C20.5378 2.66663 24.6578 5.92376 25.071 10.2471C25.0947 10.5219 25.1049 10.7661 25.108 11.1094L25.1092 12.1597C25.1101 12.2554 25.1118 12.3395 25.1142 12.418L25.1265 12.6796L25.186 12.9291C25.3736 13.624 25.7033 14.2736 26.1548 14.8376L26.3557 15.0739L26.438 15.1795C26.9796 15.9889 27.2889 16.9306 27.3332 17.9449L27.3319 18.4827C27.2941 19.6839 26.853 20.8441 26.0449 21.8109C24.9747 22.9467 23.5243 23.6524 21.9829 23.7943C18.0025 24.2265 13.9865 24.2265 10.0171 23.7954C8.46512 23.6461 7.01909 22.9425 5.90201 21.7631C5.07826 20.7588 4.64039 19.4943 4.66771 18.2165L4.66884 17.8989C4.71643 16.9273 5.02389 15.9864 5.55899 15.1736L5.64855 15.0583C6.2735 14.3732 6.70076 13.5347 6.88615 12.6307L6.86609 12.7119L6.86934 11.9996ZM16.048 4.52709H15.9529C12.3552 4.52709 9.07722 7.12111 8.77274 10.409C8.75715 10.5897 8.74472 10.7761 8.735 10.9722L8.71359 11.5941L8.7049 12.8198L8.68571 13.0089C8.43242 14.244 7.84955 15.3879 6.99889 16.3204L7.06459 16.2443L6.9471 16.4387C6.72702 16.8353 6.58503 17.266 6.52893 17.6909L6.50564 17.9449L6.50543 18.2365C6.48742 19.0856 6.77432 19.9141 7.27142 20.524C8.03826 21.3313 9.0756 21.836 10.2021 21.9444C14.0522 22.3625 17.9368 22.3625 21.8017 21.9429C22.9159 21.8403 23.9526 21.3359 24.6777 20.5688C25.2264 19.9107 25.5165 19.0795 25.4952 18.2047L25.4963 17.9868C25.4682 17.358 25.2679 16.7483 24.9163 16.2229L24.9366 16.2567L24.7528 16.0411C24.1189 15.2587 23.6585 14.3513 23.4021 13.3786L23.3156 13.0109L23.2984 12.8873C23.2854 12.7068 23.2779 12.5464 23.2739 12.3535L23.2703 11.1473C23.2678 10.8405 23.2595 10.6341 23.2408 10.4176C22.9257 7.12096 19.6447 4.52709 16.048 4.52709Z" fill="#666666"/>
</svg>
