<svg width="32" height="32" viewBox="0 0 32 32" fill="none" xmlns="http://www.w3.org/2000/svg">
<path d="M13.1069 19.7611C15.0319 19.5913 16.9681 19.5913 18.8931 19.7611L19.5078 19.8131C20.3485 19.896 21.1832 20.0258 22.0047 20.2012C24.0984 20.6325 25.6189 21.3976 26.2919 22.8169C26.7919 23.8729 26.7919 25.0988 26.2916 26.1552C25.617 27.5781 24.0769 28.3496 22.0203 28.7554L21.3972 28.8847C20.5643 29.0446 19.7245 29.1537 18.8902 29.2108C17.3247 29.344 15.752 29.3683 14.2349 29.2849C14.0676 29.2849 13.9554 29.2843 13.8565 29.282L13.6641 29.2748C13.4303 29.2629 13.216 29.2384 13.1261 29.212C12.0706 29.1403 11.0222 28.9875 10.0164 28.7606L9.67518 28.6894C7.77059 28.2662 6.36011 27.5027 5.70768 26.1537C5.46059 25.6302 5.33278 25.058 5.33352 24.4836C5.33138 23.905 5.46023 23.3335 5.71651 22.7998C6.39599 21.435 7.99242 20.6138 9.98792 20.2027C11.0218 19.9812 12.07 19.8331 13.1069 19.7611ZM18.7249 21.684C16.9118 21.524 15.0882 21.524 13.2574 21.6854C12.293 21.7525 11.3345 21.8878 10.3816 22.092C8.90578 22.396 7.77743 22.9765 7.44177 23.6504C7.31816 23.908 7.25449 24.1904 7.25555 24.4812C7.25519 24.7737 7.31971 25.0626 7.44051 25.3186C7.78572 26.0324 8.85047 26.5658 10.4105 26.8716L10.8805 26.9711C11.6677 27.1271 12.4785 27.2347 13.3795 27.3027C13.4933 27.3256 13.6161 27.3396 13.7617 27.3471L14.2865 27.3561C15.7668 27.4361 17.2508 27.4132 18.7436 27.2862C19.7057 27.2203 20.6615 27.0816 21.6262 26.8663L21.9262 26.8028C23.2962 26.4921 24.2441 25.9838 24.5561 25.3258C24.8077 24.7943 24.8077 24.1773 24.5563 23.6463C24.2224 22.9422 23.167 22.411 21.6117 22.0906C20.6657 21.8886 19.7067 21.7532 18.7418 21.6853L18.7249 21.684ZM16.0059 2.66663C19.9179 2.66663 23.0893 5.85148 23.0893 9.78019C23.0893 13.7089 19.9179 16.8938 16.0059 16.8938C12.0939 16.8938 8.92253 13.7089 8.92253 9.78019C8.92253 5.85148 12.0939 2.66663 16.0059 2.66663ZM16.0059 4.59685C13.1554 4.59685 10.8446 6.91751 10.8446 9.78019C10.8446 12.6429 13.1554 14.9635 16.0059 14.9635C18.8564 14.9635 21.1672 12.6429 21.1672 9.78019C21.1672 6.91751 18.8564 4.59685 16.0059 4.59685Z" fill="#666666"/>
</svg>
