<svg width="25" height="25" viewBox="0 0 25 25" fill="none" xmlns="http://www.w3.org/2000/svg">
<path d="M12.1877 2.67163C17.496 2.67163 21.7993 6.87982 21.7993 12.0709C21.7993 14.5207 20.8409 16.7516 19.2708 18.4246L22.3587 21.4352C22.6481 21.7176 22.6487 22.1759 22.36 22.4589C22.0976 22.7163 21.6864 22.7402 21.3963 22.5303L21.3132 22.4603L18.1889 19.4134C16.5443 20.7005 14.4579 21.4702 12.1877 21.4702C6.87941 21.4702 2.57617 17.262 2.57617 12.0709C2.57617 6.87982 6.87941 2.67163 12.1877 2.67163ZM12.1877 4.11937C7.69703 4.11937 4.05661 7.67939 4.05661 12.0709C4.05661 16.4624 7.69703 20.0224 12.1877 20.0224C16.6784 20.0224 20.3188 16.4624 20.3188 12.0709C20.3188 7.67939 16.6784 4.11937 12.1877 4.11937Z" fill="#666666"/>
</svg>
