<svg width="25" height="25" viewBox="0 0 25 25" fill="none" xmlns="http://www.w3.org/2000/svg">
<path d="M22.4997 4.72618L22.4631 4.86715L17.818 20.5067C17.357 22.0576 15.3347 22.3676 14.4214 21.0881L14.3339 20.9548L10.4381 14.5007L3.9626 10.5149C2.58614 9.6675 2.81162 7.62076 4.28121 7.06769L4.4323 7.01746L20.0888 2.46172C21.5042 2.05212 22.8113 3.32052 22.4997 4.72618ZM20.5798 3.88787L20.5069 3.90229L4.8509 8.45786C4.52501 8.55245 4.44495 8.97116 4.68278 9.18783L4.7489 9.23748L10.8731 13.0067L16.1185 7.72727C16.3838 7.46012 16.8004 7.43453 17.0947 7.6514L17.1791 7.72374C17.4463 7.98912 17.4719 8.4057 17.255 8.70003L17.1826 8.78439L11.9301 14.0707L15.6182 20.1797C15.7937 20.4706 16.2045 20.4416 16.3497 20.1561L16.3801 20.0794L21.0254 4.43938C21.1153 4.13776 20.8686 3.85686 20.5798 3.88787Z" fill="#200E32"/>
</svg>
